<svg id="Capa_1" data-name="Capa 1" xmlns="http://www.w3.org/2000/svg" viewBox="0 0 1080 1080"><defs><style>.cls-1,.cls-3{fill:#fff;}.cls-2{fill:#f1ba52;}.cls-3{font-size:117.47px;font-family:Feather-Bold, Feather;font-weight:700;}.cls-4{letter-spacing:-0.01em;}.cls-5{letter-spacing:0em;}.cls-6{letter-spacing:-0.01em;}</style></defs><path class="cls-1" d="M768.08,471.68q0,117.26-73.29,184.1T493.53,722.63H349.82q-20.74,0-29.32-8.94t-8.58-29V260q0-20.72,8.94-29.31t29-8.57H489.23q137.28,0,208.07,63.27T768.08,471.68Z"/><path class="cls-2" d="M549.39,374.61a32,32,0,0,1-.74,5.38,6.34,6.34,0,0,0-.23,1.53,53.76,53.76,0,0,1-1.33,6.35c-.18.69-.57,2-.83,2.9s-.57,1.9-.68,2.21L545,394.5c-.2.52-.56,1.46-.83,2.07s-.83,1.91-1.25,2.9a41.79,41.79,0,0,1-2.9,5.53,30.72,30.72,0,0,1-3.15,4.83,8,8,0,0,0-1,1.25,38.28,38.28,0,0,1-8.76,8.33,12.15,12.15,0,0,0-1.12.75,2.87,2.87,0,0,1-.75.5c-.36.2-.91.52-1.25.69a4.86,4.86,0,0,0-.77.5,63.18,63.18,0,0,1-7.87,2.76,58,58,0,0,1-6.49.64c-2.19,0-8.9-1.33-10.17-2-.25-.14-1.66-.83-3.1-1.55-3.5-1.71-4.31-2.15-5.55-3.15a5.71,5.71,0,0,0-1.26-.85,24.37,24.37,0,0,1-4.05-3.46,92,92,0,0,1-7.62-9.31,80.05,80.05,0,0,1-6-11.44,94,94,0,0,1-4.26-13.36c-.11-.7-.47-2.68-.77-4.42a84.8,84.8,0,0,1-.58-25.7c.16-1,.39-2.7.52-3.84a27.33,27.33,0,0,1,.53-2.9c.14-.46.33-1.35.44-2s.92-3.34,1.83-6.08c2.68-8.07,6.21-14.64,10.74-19.88,1.13-1.33,2.27-2.6,2.48-2.8,2-1.82,2.57-2.32,2.77-2.32a.36.36,0,0,0,.33-.22c.22-.5,3.35-2.59,5.77-3.87a29.44,29.44,0,0,1,12.55-3.59,20.72,20.72,0,0,1,7.18.35c1.07.26,2.55.56,3.26.7a6.61,6.61,0,0,1,1.66.47,1.76,1.76,0,0,0,.47.22,29.09,29.09,0,0,1,5.74,2.68.4.4,0,0,0,.34.22c.49,0,5.27,3.56,7.34,5.44a70,70,0,0,1,6.44,7.41,5.84,5.84,0,0,0,1,1.32.73.73,0,0,1,.36.5,3.23,3.23,0,0,0,.55,1.08,84.37,84.37,0,0,1,6.08,12,99.25,99.25,0,0,1,5.38,22.37C549.53,359.36,549.58,371.93,549.39,374.61Z"/><path class="cls-2" d="M643.4,381.38c-.3,1.21-.85,3.7-1.27,5.52a37.19,37.19,0,0,1-.94,3.73,13.18,13.18,0,0,0-.69,2.07c-.42,1.44-1.33,3.93-2.1,5.8-.11.31-.5,1.25-.83,2.08a65.83,65.83,0,0,1-5.58,11c-.49.74-1.38,2.12-1.93,3s-1.6,2.38-2.27,3.29-1.9,2.6-2.68,3.73a77.13,77.13,0,0,1-9.36,9.54,13,13,0,0,0-1.6,1.56.52.52,0,0,1-.44.23,1.77,1.77,0,0,0-.89.5,58.18,58.18,0,0,1-5.92,4c-8.45,4.58-17.42,6.55-24.16,5.31-1.36-.26-2.74-.5-3-.55-1.77-.31-7.38-2.6-7.88-3.22a6.73,6.73,0,0,0-1.07-.74c-1.58-1-7.77-6.71-7.77-7.2a2.23,2.23,0,0,0-.47-.75,16.65,16.65,0,0,1-2.29-3.43,11.81,11.81,0,0,0-1-1.66,6.67,6.67,0,0,1-.7-1.38c-.19-.52-.63-1.6-1-2.35A55.57,55.57,0,0,1,554,407.62c-.08-.77-.25-2.07-.33-2.9-.19-1.6-.16-10.61,0-12,0-.47.2-1.71.3-2.76s.27-2.57.42-3.32.33-1.87.41-2.48a19.51,19.51,0,0,1,1.1-4.83,8.31,8.31,0,0,0,.56-1.8c.61-3.45,4.75-14.09,7.07-18.1.3-.52.8-1.46,1.11-2.07a51.42,51.42,0,0,1,2.81-4.69,16.38,16.38,0,0,0,1.25-2,3.59,3.59,0,0,1,.57-.89c.26-.27,1.5-1.85,2.8-3.56a85.43,85.43,0,0,1,10-10.53c.49-.35,1.32-1,1.82-1.49a15.45,15.45,0,0,1,1.55-1.24c.36-.24,1.22-.83,1.85-1.3a54.82,54.82,0,0,1,12.95-6.46,29.2,29.2,0,0,1,8.29-1.77,30,30,0,0,1,4.56-.14c3,.3,6.08.83,6.36,1.11a1.52,1.52,0,0,0,.88.24,3.07,3.07,0,0,1,1.13.25,14.47,14.47,0,0,0,2.73,1.14,5.14,5.14,0,0,1,1.28.69c.55.38,1,.66,1,.57s.29.15.65.47a6.72,6.72,0,0,0,1.47,1c1.16.58,6.38,5.94,7.9,8.09a50.63,50.63,0,0,1,7,17.19,18,18,0,0,0,.42,2.07c.47,1.85.57,3.23.68,9.25A68.51,68.51,0,0,1,643.4,381.38Z"/><path class="cls-2" d="M468,443.67c-.41,2.93-2.15,11.52-2.49,12.14-.11.24-.58,1.54-1,2.92s-.86,2.68-.94,2.9-.39.86-.61,1.38-.63,1.46-.94,2.07a8.61,8.61,0,0,0-.52,1.39.69.69,0,0,1-.17.41,6.93,6.93,0,0,0-.85,1.52,31.17,31.17,0,0,1-1.89,3.45,11.6,11.6,0,0,0-1.49,2.21,1.14,1.14,0,0,1-.21.42c-.15.13-.7.88-1.27,1.65a46.81,46.81,0,0,1-5.62,6.36,4.26,4.26,0,0,0-1.21,1.33c-.11.27-.25.44-.33.36a7.6,7.6,0,0,0-2.13,1.32,36.48,36.48,0,0,1-13.57,6.1,34.21,34.21,0,0,1-12.56-.27c-.83-.25-1.88-.52-2.36-.67a21,21,0,0,1-2.17-.8,11.93,11.93,0,0,0-1.58-.6,5.45,5.45,0,0,1-1.35-.7,4.45,4.45,0,0,0-1.52-.68c-.22,0-.41-.14-.41-.28a.29.29,0,0,0-.31-.27,3.64,3.64,0,0,1-1.19-.7,4.61,4.61,0,0,0-1.07-.68,2.26,2.26,0,0,1-.81-.54c-.36-.27-1.63-1.32-2.84-2.29a59,59,0,0,1-8.46-9.08,24.18,24.18,0,0,0-1.68-2.16,1.33,1.33,0,0,1-.49-.75,10.41,10.41,0,0,0-1.2-2.07,51.71,51.71,0,0,1-4.2-8.39c-2-4.7-2-4.73-2.21-5.79-.11-.55-.27-1-.38-1s-.2-.21-.22-.49-.39-1.77-.83-3.37a83.14,83.14,0,0,1-3.23-24,71.84,71.84,0,0,1,.55-9.67c.05-.38.16-1.38.25-2.21A121.25,121.25,0,0,1,385.07,402a74.71,74.71,0,0,1,5.5-13.21,12.42,12.42,0,0,0,.86-1.6,3.58,3.58,0,0,1,.57-1c.31-.44.5-.79.39-.79a4.07,4.07,0,0,1,.8-1.22,5.6,5.6,0,0,0,1-1.44,6.26,6.26,0,0,1,1.11-1.35,6.37,6.37,0,0,0,1.1-1.3,4.68,4.68,0,0,1,1.05-1.27A20.72,20.72,0,0,0,399.1,377a2.64,2.64,0,0,1,.86-.83,5.21,5.21,0,0,0,1.14-1,9.58,9.58,0,0,1,1.4-1.25c.28-.17,1.57-1,2.94-2s2.61-1.77,2.84-1.85a5.94,5.94,0,0,0,.83-.47,30,30,0,0,1,9.17-2.89.67.67,0,0,0,.35-.2,76.58,76.58,0,0,1,9.54.11,33.78,33.78,0,0,1,9.39,3.21,23.84,23.84,0,0,1,3.26,1.77.62.62,0,0,0,.5.22c.22,0,.38.1.38.25a7.07,7.07,0,0,0,1.58,1.26,47.41,47.41,0,0,1,8.51,8c.61.74,1.29,1.57,1.52,1.82a32.82,32.82,0,0,1,2.43,3.31,13.07,13.07,0,0,1,1.43,2.41c0,.16.23.44.5.58s.36.31.25.31,0,.32.31.74a59.32,59.32,0,0,1,2.89,5.89l1.14,2.53A90.77,90.77,0,0,1,468,420.6,94.67,94.67,0,0,1,468,443.67Z"/><path class="cls-2" d="M698.21,462.73c-.06.53-.16,1.77-.25,2.76-.55,6-3.4,19.92-4.52,22a3,3,0,0,0-.34,1.3c0,.39-.11.73-.28.73s-.27.29-.27.65-.12.78-.28.86a.91.91,0,0,0-.28.67c0,.86-4,10.38-4.61,11a1.31,1.31,0,0,0-.36.7,8.56,8.56,0,0,1-1,1.9c-.53.88-.86,1.61-.75,1.61s.05.1-.08.21a2.76,2.76,0,0,0-.63.89,45.82,45.82,0,0,1-2.47,4.2,9.59,9.59,0,0,0-1.19,2.29.61.61,0,0,1-.39.58,7.41,7.41,0,0,0-1.73,2.33c0,.08-.33.49-.77,1s-1.14,1.33-1.58,1.93c-.89,1.22-3.34,4-5.75,6.58a17.07,17.07,0,0,0-1.6,1.88.42.42,0,0,1-.36.25,56.6,56.6,0,0,0-6,4.94,1,1,0,0,1-.55.42,7.19,7.19,0,0,0-1.57.83c-.74.49-2.07,1.24-2.9,1.71s-1.58.86-1.66.94a17.49,17.49,0,0,1-1.8.88,33.09,33.09,0,0,1-14.64,3.4c-4,0-6-.25-8.29-1.24a7.45,7.45,0,0,0-1.62-.56c-.52,0-4.37-2.26-6-3.54-5.46-4.19-9.88-10.9-12.2-18.42-.59-1.82-1.14-3.61-1.28-4a14.31,14.31,0,0,1-.44-2.08c-.12-.77-.22-1.43-.25-1.51s-.16-1.14-.36-2.36a94.26,94.26,0,0,1-.16-22.78,106.42,106.42,0,0,1,2.86-14.51,40.21,40.21,0,0,1,2.13-6.71,9.2,9.2,0,0,0,.56-1.88c.09-.5.27-.94.38-.94s.26-.17.26-.39c0-.55,1.13-3.26,2.93-7a34.26,34.26,0,0,0,1.49-3.37,4.73,4.73,0,0,1,.65-1.26A28.81,28.81,0,0,0,622,446.5a16.33,16.33,0,0,1,1.35-2.41,40,40,0,0,0,3.46-5.36c0-.16.1-.31.22-.31a15.75,15.75,0,0,0,2.4-3,16.84,16.84,0,0,1,1.46-1.77,5.9,5.9,0,0,0,1.17-1.74c0-.23.1-.36.25-.31A7.74,7.74,0,0,0,634,430a60,60,0,0,1,5.09-5.11,17.93,17.93,0,0,0,1.93-1.53,11.05,11.05,0,0,1,2.07-1.51c.14,0,.26-.2.26-.42a.39.39,0,0,1,.35-.41,11.41,11.41,0,0,0,2.43-1.41c3.93-2.73,10.51-5.64,14.2-6.32,1.08-.2,2.32-.47,2.76-.59,1.94-.55,10.28,0,12.17.86.29.11,1.23.47,2.06.75a4.89,4.89,0,0,1,1.74.83.8.8,0,0,0,.58.36c.56,0,4.51,3,6.39,4.89a28.43,28.43,0,0,1,3.72,4.19,9.29,9.29,0,0,0,.91,1.55c2.75,4.09,5.23,10.75,6.28,16.71.33,1.91.63,3.51.71,3.62a20.88,20.88,0,0,1,.26,2.77c.08,1.43.21,2.89.29,3.28A99.67,99.67,0,0,1,698.21,462.73Z"/><path class="cls-2" d="M621.1,583.88c-.13,5.24-.21,6.66-.49,7.48a11.39,11.39,0,0,0-.27,1.63,49.54,49.54,0,0,1-2.33,9.54,62.18,62.18,0,0,1-5.49,12.07,8.07,8.07,0,0,0-.92,1.71.42.42,0,0,1-.25.36,6.73,6.73,0,0,0-1.15,1.49,70.2,70.2,0,0,1-5.09,6.32c-.55.62-1.33,1.53-1.71,2s-.83.91-1,.91a10.91,10.91,0,0,0-2.1,1.62c-1,.88-2.71,2.27-3.78,3s-2.08,1.53-2.27,1.69a1.72,1.72,0,0,1-.46.28,18.44,18.44,0,0,0-1.85,1,57.11,57.11,0,0,1-14.07,5.83,45.52,45.52,0,0,1-12.71,1.47,37.37,37.37,0,0,1-12.27-1.86c-3.8-1.12-9.11-3.23-9.55-3.72a34.94,34.94,0,0,0-3.46-2.08,13.06,13.06,0,0,1-2.62-1.57c-.24-.3-11.68-5.94-13.68-6.71a10.56,10.56,0,0,1-2.06-1,2.29,2.29,0,0,0-.91-.38,16.1,16.1,0,0,1-2.21-.83,41.94,41.94,0,0,0-4.34-1.53c-1.61-.49-3.15-1-3.46-1.12a51.82,51.82,0,0,0-5.38-1.56c-.39-.08-1.75-.36-3-.65a101,101,0,0,0-12.3-2.11,20.7,20.7,0,0,1-2.35-.25c-5.44-.76-20.46-.71-27.76.12-7.46.83-13.24.55-19.2-1a54.25,54.25,0,0,1-8.84-3.69,22.06,22.06,0,0,0-3.32-1.93c-.14,0-.5-.36-.82-.83s-.78-.83-1-.83c-.66,0-5.63-4.73-7.55-7.16a14,14,0,0,0-2-2.23c-.1,0-.22-.18-.22-.37a10.42,10.42,0,0,0-1.18-2.13c-.64-1-1.42-2.29-1.72-2.89a6.55,6.55,0,0,0-.77-1.27c-.14-.08-.22-.23-.19-.28a8.84,8.84,0,0,0-.91-2.46c-.31-.69-.59-1.29-.62-1.39s-.13-.52-.27-1a4.19,4.19,0,0,0-.39-1.1,2.12,2.12,0,0,1-.19-.55c0-.17-.39-1.42-.78-2.8-.91-3.28-1.26-6.11-1.46-11.71a48.49,48.49,0,0,1,1.22-13.39A52.25,52.25,0,0,1,416,542a7.75,7.75,0,0,0,1-1.88c0-.16.09-.33.2-.33a32.57,32.57,0,0,0,3.59-4.61c0-.12.33-.41.77-.67.66-.39,5.86-4.44,7-5.49s3.22-2.76,4.61-3.84a6.75,6.75,0,0,0,1.43-1.41.29.29,0,0,1,.31-.28c.3,0,1.16-.69,3.09-2.56a6.1,6.1,0,0,1,1.3-1,3.66,3.66,0,0,0,1-.94,6.15,6.15,0,0,1,1.11-1c.27-.11,3.44-2.93,7.37-6.63,1.08-1,2.88-2.68,4-3.73,2.49-2.3,3.62-3.48,3.62-3.76,0-.13.12-.22.28-.22.39,0,1.38-.89,1.38-1.24,0-.17.28-.41.62-.56a2.26,2.26,0,0,0,.93-.88c.17-.35.35-.58.45-.5s3.8-3.59,3.8-4a.34.34,0,0,1,.36-.29c.42,0,1.64-1.25,2.11-2.16.16-.33.46-.61.65-.61a5.4,5.4,0,0,0,1.45-1.44c1.4-1.79,2.23-2.7,2.45-2.7a16,16,0,0,0,3.2-3.54.42.42,0,0,1,.36-.36c.28,0,8.79-9.5,10.48-11.71.33-.47,1.32-1.66,2.21-2.71a12,12,0,0,0,1.59-2.13,17.66,17.66,0,0,1,2-2.41c1.05-1.18,2-2.29,2.13-2.42s.66-.83,1.21-1.49,1-1.33.88-1.44.12-.36.39-.5a60.37,60.37,0,0,0,6.14-8,2.33,2.33,0,0,1,.57-.8,59.53,59.53,0,0,0,4.51-5.74,11.93,11.93,0,0,1,2.35-1.91,44.24,44.24,0,0,1,14.95-6.35c.38-.08,1.67-.33,2.89-.55a27.27,27.27,0,0,1,4.53-.44,13.4,13.4,0,0,0,2.46-.17.4.4,0,0,1,.37,0,9.24,9.24,0,0,0,1.82.28,15.56,15.56,0,0,1,2.57.41,10,10,0,0,0,2.12.27,2.33,2.33,0,0,1,1.3.25,2.7,2.7,0,0,0,1.19.45,33.85,33.85,0,0,1,11.71,5.44,7.16,7.16,0,0,0,1.19.77c.49,0,6.52,5.22,6.52,5.67a4.39,4.39,0,0,0,.78.91,15,15,0,0,1,1.51,1.85,16.56,16.56,0,0,0,1.44,1.85,5.14,5.14,0,0,1,.69.85c0,.08.69,1.36,1.57,2.85s1.86,3.29,2.21,4,.75,1.44.88,1.65.62,1.11,1,1.94a9.32,9.32,0,0,0,1,1.65,4.84,4.84,0,0,1,.66,1.11c.25.53.72,1.41,1,1.93,1.3,2.13,2.26,3.87,3.72,6.78,1.75,3.47,2.08,4.06,2.47,4.33.16.12.16.22,0,.22s-.09.17.09.39c.36.44,2.34,4.2,3.92,7.49.6,1.21,1.46,2.95,1.93,3.86.91,1.77,4.47,8.9,7.18,14.43,1.47,3,3,6.35,3.15,6.71,0,.08.2.49.36.91a4.32,4.32,0,0,1,.33.91c0,.05.63,1.46,1.41,3.09s1.53,3.21,1.66,3.51c1,2.4,3.37,7.68,4.78,10.69a15.73,15.73,0,0,1,1,2.41,2,2,0,0,0,.27.8c.15.25.9,2,1.66,3.78l1.66,3.88c.14.29.89,2.11,1.66,4.08s1.49,3.73,1.63,4c.72,1.38,4.64,11.6,4.86,12.68.12.42.25,1,.33,1.18a4.45,4.45,0,0,1,.23,1c0,.3.27,1.55.52,2.77A49.09,49.09,0,0,1,621.1,583.88Z"/><text class="cls-3" transform="translate(31.18 827.89)">Do<tspan class="cls-4" x="160.93" y="0">g</tspan><tspan x="232.94" y="0">e </tspan><tspan class="cls-5" x="326.8" y="0">A</tspan><tspan class="cls-6" x="412.2" y="0">s</tspan><tspan class="cls-5" x="471.99" y="0">s</tspan><tspan x="532.96" y="0">ociation</tspan></text></svg>