<svg id="Capa_1" data-name="Capa 1" xmlns="http://www.w3.org/2000/svg" viewBox="0 0 1080 1080"><defs><style>.cls-1{fill:#1d0a3f;}.cls-2{fill:#f1ba52;}</style></defs><path class="cls-1" d="M768.08,471.68q0,117.26-73.29,184.1T493.53,722.63H349.82q-20.74,0-29.32-8.94t-8.58-29V260q0-20.72,8.94-29.31t29-8.57H489.23q137.28,0,208.07,63.27T768.08,471.68Z"/><path class="cls-2" d="M549.39,374.61a32,32,0,0,1-.74,5.38,6.34,6.34,0,0,0-.23,1.53,53.76,53.76,0,0,1-1.33,6.35c-.18.69-.57,2-.83,2.9s-.57,1.9-.68,2.21L545,394.5c-.2.52-.56,1.46-.83,2.07s-.83,1.91-1.25,2.9a41.79,41.79,0,0,1-2.9,5.53,30.72,30.72,0,0,1-3.15,4.83,8,8,0,0,0-1,1.25,38.28,38.28,0,0,1-8.76,8.33,12.15,12.15,0,0,0-1.12.75,2.87,2.87,0,0,1-.75.5c-.36.2-.91.52-1.25.69a4.86,4.86,0,0,0-.77.5,63.18,63.18,0,0,1-7.87,2.76,58,58,0,0,1-6.49.64c-2.19,0-8.9-1.33-10.17-2-.25-.14-1.66-.83-3.1-1.55-3.5-1.71-4.31-2.15-5.55-3.15a5.71,5.71,0,0,0-1.26-.85,24.37,24.37,0,0,1-4.05-3.46,92,92,0,0,1-7.62-9.31,80.05,80.05,0,0,1-6-11.44,94,94,0,0,1-4.26-13.36c-.11-.7-.47-2.68-.77-4.42a84.8,84.8,0,0,1-.58-25.7c.16-1,.39-2.7.52-3.84a27.33,27.33,0,0,1,.53-2.9c.14-.46.33-1.35.44-2s.92-3.34,1.83-6.08c2.68-8.07,6.21-14.64,10.74-19.88,1.13-1.33,2.27-2.6,2.48-2.8,2-1.82,2.57-2.32,2.77-2.32a.36.36,0,0,0,.33-.22c.22-.5,3.35-2.59,5.77-3.87a29.44,29.44,0,0,1,12.55-3.59,20.72,20.72,0,0,1,7.18.35c1.07.26,2.55.56,3.26.7a6.61,6.61,0,0,1,1.66.47,1.76,1.76,0,0,0,.47.22,29.09,29.09,0,0,1,5.74,2.68.4.4,0,0,0,.34.22c.49,0,5.27,3.56,7.34,5.44a70,70,0,0,1,6.44,7.41,5.84,5.84,0,0,0,1,1.32.73.73,0,0,1,.36.5,3.23,3.23,0,0,0,.55,1.08,84.37,84.37,0,0,1,6.08,12,99.25,99.25,0,0,1,5.38,22.37C549.53,359.36,549.58,371.93,549.39,374.61Z"/><path class="cls-2" d="M643.4,381.38c-.3,1.21-.85,3.7-1.27,5.52a37.19,37.19,0,0,1-.94,3.73,13.18,13.18,0,0,0-.69,2.07c-.42,1.44-1.33,3.93-2.1,5.8-.11.31-.5,1.25-.83,2.08a65.83,65.83,0,0,1-5.58,11c-.49.74-1.38,2.12-1.93,3s-1.6,2.38-2.27,3.29-1.9,2.6-2.68,3.73a77.13,77.13,0,0,1-9.36,9.54,13,13,0,0,0-1.6,1.56.52.52,0,0,1-.44.23,1.77,1.77,0,0,0-.89.5,58.18,58.18,0,0,1-5.92,4c-8.45,4.58-17.42,6.55-24.16,5.31-1.36-.26-2.74-.5-3-.55-1.77-.31-7.38-2.6-7.88-3.22a6.73,6.73,0,0,0-1.07-.74c-1.58-1-7.77-6.71-7.77-7.2a2.23,2.23,0,0,0-.47-.75,16.65,16.65,0,0,1-2.29-3.43,11.81,11.81,0,0,0-1-1.66,6.67,6.67,0,0,1-.7-1.38c-.19-.52-.63-1.6-1-2.35A55.57,55.57,0,0,1,554,407.62c-.08-.77-.25-2.07-.33-2.9-.19-1.6-.16-10.61,0-12,0-.47.2-1.71.3-2.76s.27-2.57.42-3.32.33-1.87.41-2.48a19.51,19.51,0,0,1,1.1-4.83,8.31,8.31,0,0,0,.56-1.8c.61-3.45,4.75-14.09,7.07-18.1.3-.52.8-1.46,1.11-2.07a51.42,51.42,0,0,1,2.81-4.69,16.38,16.38,0,0,0,1.25-2,3.59,3.59,0,0,1,.57-.89c.26-.27,1.5-1.85,2.8-3.56a85.43,85.43,0,0,1,10-10.53c.49-.35,1.32-1,1.82-1.49a15.45,15.45,0,0,1,1.55-1.24c.36-.24,1.22-.83,1.85-1.3a54.82,54.82,0,0,1,12.95-6.46,29.2,29.2,0,0,1,8.29-1.77,30,30,0,0,1,4.56-.14c3,.3,6.08.83,6.36,1.11a1.52,1.52,0,0,0,.88.24,3.07,3.07,0,0,1,1.13.25,14.47,14.47,0,0,0,2.73,1.14,5.14,5.14,0,0,1,1.28.69c.55.38,1,.66,1,.57s.29.15.65.47a6.72,6.72,0,0,0,1.47,1c1.16.58,6.38,5.94,7.9,8.09a50.63,50.63,0,0,1,7,17.19,18,18,0,0,0,.42,2.07c.47,1.85.57,3.23.68,9.25A68.51,68.51,0,0,1,643.4,381.38Z"/><path class="cls-2" d="M468,443.67c-.41,2.93-2.15,11.52-2.49,12.14-.11.24-.58,1.54-1,2.92s-.86,2.68-.94,2.9-.39.86-.61,1.38-.63,1.46-.94,2.07a8.61,8.61,0,0,0-.52,1.39.69.69,0,0,1-.17.41,6.93,6.93,0,0,0-.85,1.52,31.17,31.17,0,0,1-1.89,3.45,11.6,11.6,0,0,0-1.49,2.21,1.14,1.14,0,0,1-.21.42c-.15.13-.7.88-1.27,1.65a46.81,46.81,0,0,1-5.62,6.36,4.26,4.26,0,0,0-1.21,1.33c-.11.27-.25.44-.33.36a7.6,7.6,0,0,0-2.13,1.32,36.48,36.48,0,0,1-13.57,6.1,34.21,34.21,0,0,1-12.56-.27c-.83-.25-1.88-.52-2.36-.67a21,21,0,0,1-2.17-.8,11.93,11.93,0,0,0-1.58-.6,5.45,5.45,0,0,1-1.35-.7,4.45,4.45,0,0,0-1.52-.68c-.22,0-.41-.14-.41-.28a.29.29,0,0,0-.31-.27,3.64,3.64,0,0,1-1.19-.7,4.61,4.61,0,0,0-1.07-.68,2.26,2.26,0,0,1-.81-.54c-.36-.27-1.63-1.32-2.84-2.29a59,59,0,0,1-8.46-9.08,24.18,24.18,0,0,0-1.68-2.16,1.33,1.33,0,0,1-.49-.75,10.41,10.41,0,0,0-1.2-2.07,51.71,51.71,0,0,1-4.2-8.39c-2-4.7-2-4.73-2.21-5.79-.11-.55-.27-1-.38-1s-.2-.21-.22-.49-.39-1.77-.83-3.37a83.14,83.14,0,0,1-3.23-24,71.84,71.84,0,0,1,.55-9.67c.05-.38.16-1.38.25-2.21A121.25,121.25,0,0,1,385.07,402a74.71,74.71,0,0,1,5.5-13.21,12.42,12.42,0,0,0,.86-1.6,3.58,3.58,0,0,1,.57-1c.31-.44.5-.79.39-.79a4.07,4.07,0,0,1,.8-1.22,5.6,5.6,0,0,0,1-1.44,6.26,6.26,0,0,1,1.11-1.35,6.37,6.37,0,0,0,1.1-1.3,4.68,4.68,0,0,1,1.05-1.27A20.72,20.72,0,0,0,399.1,377a2.64,2.64,0,0,1,.86-.83,5.21,5.21,0,0,0,1.14-1,9.58,9.58,0,0,1,1.4-1.25c.28-.17,1.57-1,2.94-2s2.61-1.77,2.84-1.85a5.94,5.94,0,0,0,.83-.47,30,30,0,0,1,9.17-2.89.67.67,0,0,0,.35-.2,76.58,76.58,0,0,1,9.54.11,33.78,33.78,0,0,1,9.39,3.21,23.84,23.84,0,0,1,3.26,1.77.62.62,0,0,0,.5.22c.22,0,.38.1.38.25a7.07,7.07,0,0,0,1.58,1.26,47.41,47.41,0,0,1,8.51,8c.61.74,1.29,1.57,1.52,1.82a32.82,32.82,0,0,1,2.43,3.31,13.07,13.07,0,0,1,1.43,2.41c0,.16.23.44.5.58s.36.31.25.31,0,.32.31.74a59.32,59.32,0,0,1,2.89,5.89l1.14,2.53A90.77,90.77,0,0,1,468,420.6,94.67,94.67,0,0,1,468,443.67Z"/><path class="cls-2" d="M698.21,462.73c-.06.53-.16,1.77-.25,2.76-.55,6-3.4,19.92-4.52,22a3,3,0,0,0-.34,1.3c0,.39-.11.73-.28.73s-.27.29-.27.65-.12.78-.28.86a.91.91,0,0,0-.28.67c0,.86-4,10.38-4.61,11a1.31,1.31,0,0,0-.36.7,8.56,8.56,0,0,1-1,1.9c-.53.88-.86,1.61-.75,1.61s.05.1-.08.21a2.76,2.76,0,0,0-.63.89,45.82,45.82,0,0,1-2.47,4.2,9.59,9.59,0,0,0-1.19,2.29.61.61,0,0,1-.39.58,7.41,7.41,0,0,0-1.73,2.33c0,.08-.33.49-.77,1s-1.14,1.33-1.58,1.93c-.89,1.22-3.34,4-5.75,6.58a17.07,17.07,0,0,0-1.6,1.88.42.42,0,0,1-.36.25,56.6,56.6,0,0,0-6,4.94,1,1,0,0,1-.55.42,7.19,7.19,0,0,0-1.57.83c-.74.49-2.07,1.24-2.9,1.71s-1.58.86-1.66.94a17.49,17.49,0,0,1-1.8.88,33.09,33.09,0,0,1-14.64,3.4c-4,0-6-.25-8.29-1.24a7.45,7.45,0,0,0-1.62-.56c-.52,0-4.37-2.26-6-3.54-5.46-4.19-9.88-10.9-12.2-18.42-.59-1.82-1.14-3.61-1.28-4a14.31,14.31,0,0,1-.44-2.08c-.12-.77-.22-1.43-.25-1.51s-.16-1.14-.36-2.36a94.26,94.26,0,0,1-.16-22.78,106.42,106.42,0,0,1,2.86-14.51,40.21,40.21,0,0,1,2.13-6.71,9.2,9.2,0,0,0,.56-1.88c.09-.5.27-.94.38-.94s.26-.17.26-.39c0-.55,1.13-3.26,2.93-7a34.26,34.26,0,0,0,1.49-3.37,4.73,4.73,0,0,1,.65-1.26A28.81,28.81,0,0,0,622,446.5a16.33,16.33,0,0,1,1.35-2.41,40,40,0,0,0,3.46-5.36c0-.16.1-.31.22-.31a15.75,15.75,0,0,0,2.4-3,16.84,16.84,0,0,1,1.46-1.77,5.9,5.9,0,0,0,1.17-1.74c0-.23.1-.36.25-.31A7.74,7.74,0,0,0,634,430a60,60,0,0,1,5.09-5.11,17.93,17.93,0,0,0,1.93-1.53,11.05,11.05,0,0,1,2.07-1.51c.14,0,.26-.2.26-.42a.39.39,0,0,1,.35-.41,11.41,11.41,0,0,0,2.43-1.41c3.93-2.73,10.51-5.64,14.2-6.32,1.08-.2,2.32-.47,2.76-.59,1.94-.55,10.28,0,12.17.86.29.11,1.23.47,2.06.75a4.89,4.89,0,0,1,1.74.83.8.8,0,0,0,.58.36c.56,0,4.51,3,6.39,4.89a28.43,28.43,0,0,1,3.72,4.19,9.29,9.29,0,0,0,.91,1.55c2.75,4.09,5.23,10.75,6.28,16.71.33,1.91.63,3.51.71,3.62a20.88,20.88,0,0,1,.26,2.77c.08,1.43.21,2.89.29,3.28A99.67,99.67,0,0,1,698.21,462.73Z"/><path class="cls-2" d="M621.1,583.88c-.13,5.24-.21,6.66-.49,7.48a11.39,11.39,0,0,0-.27,1.63,49.54,49.54,0,0,1-2.33,9.54,62.18,62.18,0,0,1-5.49,12.07,8.07,8.07,0,0,0-.92,1.71.42.42,0,0,1-.25.36,6.73,6.73,0,0,0-1.15,1.49,70.2,70.2,0,0,1-5.09,6.32c-.55.62-1.33,1.53-1.71,2s-.83.91-1,.91a10.91,10.91,0,0,0-2.1,1.62c-1,.88-2.71,2.27-3.78,3s-2.08,1.53-2.27,1.69a1.72,1.72,0,0,1-.46.28,18.44,18.44,0,0,0-1.85,1,57.11,57.11,0,0,1-14.07,5.83,45.52,45.52,0,0,1-12.71,1.47,37.37,37.37,0,0,1-12.27-1.86c-3.8-1.12-9.11-3.23-9.55-3.72a34.94,34.94,0,0,0-3.46-2.08,13.06,13.06,0,0,1-2.62-1.57c-.24-.3-11.68-5.94-13.68-6.71a10.56,10.56,0,0,1-2.06-1,2.29,2.29,0,0,0-.91-.38,16.1,16.1,0,0,1-2.21-.83,41.94,41.94,0,0,0-4.34-1.53c-1.61-.49-3.15-1-3.46-1.12a51.82,51.82,0,0,0-5.38-1.56c-.39-.08-1.75-.36-3-.65a101,101,0,0,0-12.3-2.11,20.7,20.7,0,0,1-2.35-.25c-5.44-.76-20.46-.71-27.76.12-7.46.83-13.24.55-19.2-1a54.25,54.25,0,0,1-8.84-3.69,22.06,22.06,0,0,0-3.32-1.93c-.14,0-.5-.36-.82-.83s-.78-.83-1-.83c-.66,0-5.63-4.73-7.55-7.16a14,14,0,0,0-2-2.23c-.1,0-.22-.18-.22-.37a10.42,10.42,0,0,0-1.18-2.13c-.64-1-1.42-2.29-1.72-2.89a6.55,6.55,0,0,0-.77-1.27c-.14-.08-.22-.23-.19-.28a8.84,8.84,0,0,0-.91-2.46c-.31-.69-.59-1.29-.62-1.39s-.13-.52-.27-1a4.19,4.19,0,0,0-.39-1.1,2.12,2.12,0,0,1-.19-.55c0-.17-.39-1.42-.78-2.8-.91-3.28-1.26-6.11-1.46-11.71a48.49,48.49,0,0,1,1.22-13.39A52.25,52.25,0,0,1,416,542a7.75,7.75,0,0,0,1-1.88c0-.16.09-.33.2-.33a32.57,32.57,0,0,0,3.59-4.61c0-.12.33-.41.77-.67.66-.39,5.86-4.44,7-5.49s3.22-2.76,4.61-3.84a6.75,6.75,0,0,0,1.43-1.41.29.29,0,0,1,.31-.28c.3,0,1.16-.69,3.09-2.56a6.1,6.1,0,0,1,1.3-1,3.66,3.66,0,0,0,1-.94,6.15,6.15,0,0,1,1.11-1c.27-.11,3.44-2.93,7.37-6.63,1.08-1,2.88-2.68,4-3.73,2.49-2.3,3.62-3.48,3.62-3.76,0-.13.12-.22.28-.22.39,0,1.38-.89,1.38-1.24,0-.17.28-.41.62-.56a2.26,2.26,0,0,0,.93-.88c.17-.35.35-.58.45-.5s3.8-3.59,3.8-4a.34.34,0,0,1,.36-.29c.42,0,1.64-1.25,2.11-2.16.16-.33.46-.61.65-.61a5.4,5.4,0,0,0,1.45-1.44c1.4-1.79,2.23-2.7,2.45-2.7a16,16,0,0,0,3.2-3.54.42.42,0,0,1,.36-.36c.28,0,8.79-9.5,10.48-11.71.33-.47,1.32-1.66,2.21-2.71a12,12,0,0,0,1.59-2.13,17.66,17.66,0,0,1,2-2.41c1.05-1.18,2-2.29,2.13-2.42s.66-.83,1.21-1.49,1-1.33.88-1.44.12-.36.39-.5a60.37,60.37,0,0,0,6.14-8,2.33,2.33,0,0,1,.57-.8,59.53,59.53,0,0,0,4.51-5.74,11.93,11.93,0,0,1,2.35-1.91,44.24,44.24,0,0,1,14.95-6.35c.38-.08,1.67-.33,2.89-.55a27.27,27.27,0,0,1,4.53-.44,13.4,13.4,0,0,0,2.46-.17.4.4,0,0,1,.37,0,9.24,9.24,0,0,0,1.82.28,15.56,15.56,0,0,1,2.57.41,10,10,0,0,0,2.12.27,2.33,2.33,0,0,1,1.3.25,2.7,2.7,0,0,0,1.19.45,33.85,33.85,0,0,1,11.71,5.44,7.16,7.16,0,0,0,1.19.77c.49,0,6.52,5.22,6.52,5.67a4.39,4.39,0,0,0,.78.91,15,15,0,0,1,1.51,1.85,16.56,16.56,0,0,0,1.44,1.85,5.14,5.14,0,0,1,.69.85c0,.08.69,1.36,1.57,2.85s1.86,3.29,2.21,4,.75,1.44.88,1.65.62,1.11,1,1.94a9.32,9.32,0,0,0,1,1.65,4.84,4.84,0,0,1,.66,1.11c.25.53.72,1.41,1,1.93,1.3,2.13,2.26,3.87,3.72,6.78,1.75,3.47,2.08,4.06,2.47,4.33.16.12.16.22,0,.22s-.09.17.09.39c.36.44,2.34,4.2,3.92,7.49.6,1.21,1.46,2.95,1.93,3.86.91,1.77,4.47,8.9,7.18,14.43,1.47,3,3,6.35,3.15,6.71,0,.08.2.49.36.91a4.32,4.32,0,0,1,.33.91c0,.05.63,1.46,1.41,3.09s1.53,3.21,1.66,3.51c1,2.4,3.37,7.68,4.78,10.69a15.73,15.73,0,0,1,1,2.41,2,2,0,0,0,.27.8c.15.25.9,2,1.66,3.78l1.66,3.88c.14.29.89,2.11,1.66,4.08s1.49,3.73,1.63,4c.72,1.38,4.64,11.6,4.86,12.68.12.42.25,1,.33,1.18a4.45,4.45,0,0,1,.23,1c0,.3.27,1.55.52,2.77A49.09,49.09,0,0,1,621.1,583.88Z"/><path class="cls-2" d="M68.77,745.66q22.56,0,34.19,10.4t11.62,30.6q0,19.26-12,30.25t-33.06,11H45.86q-3.4,0-4.81-1.47c-.94-1-1.41-2.56-1.41-4.76V751.89q0-3.4,1.47-4.82c1-.94,2.56-1.41,4.75-1.41ZM69.24,810q12.45,0,18.91-6t6.46-17.38q0-23.14-25-23.14H59.37V810Z"/><path class="cls-2" d="M179.08,821.08q-9.53,9.15-23.85,9.16t-23.85-9.16q-9.51-9.17-9.51-23.15t9.51-23.2q9.52-9.09,23.85-9.1t23.85,9.1q9.51,9.1,9.51,23.2T179.08,821.08Zm-34.31-12q3.89,4.29,10.46,4.28T165.68,809a17.83,17.83,0,0,0,0-22.21,14.91,14.91,0,0,0-20.91,0,17.87,17.87,0,0,0,0,22.21Z"/><path class="cls-2" d="M227.35,857.84q-14.79,0-23.84-7.4t-9-19.61a25.63,25.63,0,0,1,3.41-12.75,21.78,21.78,0,0,1,9.16-9q-9.28-7.64-9.28-18.09a22.76,22.76,0,0,1,7.87-17.79q7.88-7,20.8-7a72.25,72.25,0,0,1,11.33.88,58.2,58.2,0,0,0,8.05.88,24.18,24.18,0,0,0,11.51-3.17,8.55,8.55,0,0,1,3.76-1.18q3.65,0,3.64,5.29,0,10.58-9.51,14A18.43,18.43,0,0,1,257,791q0,10.11-9.28,18.09a21.09,21.09,0,0,1,9.16,8.87,25.88,25.88,0,0,1,3.41,12.87q0,12.21-9,19.61T227.35,857.84Zm0-15.27A15.06,15.06,0,0,0,237.52,839a11.66,11.66,0,0,0,.23-17.68q-3.93-3.4-10.4-3.41T217,821.31a11.72,11.72,0,0,0,.17,17.68A15,15,0,0,0,227.35,842.57Zm-8.16-42.7a11.94,11.94,0,0,0,16.33,0,10.45,10.45,0,0,0,3.35-7.81,10.61,10.61,0,0,0-3.17-8,12.94,12.94,0,0,0-16.69,0,10.61,10.61,0,0,0-3.17,8A10.45,10.45,0,0,0,219.19,799.87Z"/><path class="cls-2" d="M328.61,797.7c0,2.11-.43,3.62-1.29,4.52s-2.43,1.35-4.7,1.35H286.21a13,13,0,0,0,5.75,7.35q4.47,2.87,11.63,2.87a43.39,43.39,0,0,0,11.75-1.52q5.4-1.53,5.52-1.53c2.12,0,3.17,1.14,3.17,3.41V821c0,2.58-.82,4.39-2.46,5.4q-6.24,3.89-19.86,3.88-14.68,0-24.37-8.69t-9.69-23.62A32.34,32.34,0,0,1,276.4,775a28.66,28.66,0,0,1,21.91-9.4q14.56,0,22.43,8.63T328.61,797.7Zm-30.07-16.33a12.49,12.49,0,0,0-8.4,2.76,12.16,12.16,0,0,0-4.05,7.34h24.32a11.66,11.66,0,0,0-3.59-7.34Q303.83,781.37,298.54,781.37Z"/><path class="cls-1" d="M440.44,821.08q2.35,6.81-4.69,6.81h-6.58c-2.9,0-5-.51-6.4-1.53s-2.49-2.82-3.35-5.4l-3.17-10.22h-31L381.94,821q-1.29,4-3.58,5.46c-1.53,1-4,1.47-7.34,1.47H366.2q-7.05,0-4.7-6.81l24.09-69.55a8,8,0,0,1,8.22-5.87h14.33q6.35,0,8.22,5.87Zm-49.8-27H411l-10-31.95Z"/><path class="cls-1" d="M473.1,829.89a65.37,65.37,0,0,1-12.33-1.18,32.46,32.46,0,0,1-8.7-2.58,5.71,5.71,0,0,1-3.17-5.29v-5.76q0-4.33,3.76-4.34a66.62,66.62,0,0,1,7.4,2,49.58,49.58,0,0,0,14.69,2.06q6.93,0,6.93-4.58a3.26,3.26,0,0,0-1.88-3.17,33,33,0,0,0-7.4-2l-3.76-.7q-9.63-1.77-14.74-5.76t-5.11-12.22q0-10.92,7.34-15.68T475,766q12.81,0,20.21,3.53a5.4,5.4,0,0,1,3.17,5.28v5.76c0,2.74-1.26,4.11-3.76,4.11a50.86,50.86,0,0,1-7.93-1.82A45.77,45.77,0,0,0,474.75,781c-4.63,0-6.93,1.33-6.93,4a3,3,0,0,0,1.76,2.88,29.87,29.87,0,0,0,7.05,1.82l3.29.59q10.09,1.76,15.44,5.87t5.35,13.63q0,10.46-7.64,15.27T473.1,829.89Z"/><path class="cls-1" d="M532.89,829.89a65.37,65.37,0,0,1-12.33-1.18,32.37,32.37,0,0,1-8.69-2.58,5.7,5.7,0,0,1-3.18-5.29v-5.76c0-2.89,1.26-4.34,3.76-4.34a66.62,66.62,0,0,1,7.4,2,49.58,49.58,0,0,0,14.69,2.06q6.93,0,6.93-4.58a3.26,3.26,0,0,0-1.88-3.17,32.85,32.85,0,0,0-7.4-2l-3.76-.7q-9.63-1.77-14.74-5.76t-5.11-12.22q0-10.92,7.34-15.68T534.77,766q12.81,0,20.21,3.53a5.4,5.4,0,0,1,3.17,5.28v5.76q0,4.11-3.76,4.11a50.86,50.86,0,0,1-7.93-1.82A45.71,45.71,0,0,0,534.54,781q-6.93,0-6.93,4a3,3,0,0,0,1.76,2.88,29.87,29.87,0,0,0,7,1.82l3.29.59q10.1,1.76,15.44,5.87t5.35,13.63q0,10.46-7.64,15.27T532.89,829.89Z"/><path class="cls-1" d="M624.87,821.08q-9.51,9.15-23.84,9.16t-23.85-9.16q-9.51-9.17-9.51-23.15t9.51-23.2q9.51-9.09,23.85-9.1t23.84,9.1q9.52,9.1,9.52,23.2T624.87,821.08Zm-34.3-12q3.88,4.29,10.46,4.28T611.48,809a17.83,17.83,0,0,0,0-22.21,14.91,14.91,0,0,0-20.91,0,17.87,17.87,0,0,0,0,22.21Z"/><path class="cls-1" d="M674,830.24a32.53,32.53,0,0,1-22.78-9q-9.77-9-9.75-23.32t9.8-23.37a33.2,33.2,0,0,1,23.09-8.93q9.51,0,15.74,2.7a7.53,7.53,0,0,1,3.4,2.53,6.8,6.8,0,0,1,.83,3.58v6c0,2.9-1.26,4.35-3.76,4.35a28.37,28.37,0,0,1-5.82-1.12,32.6,32.6,0,0,0-8.16-1.11q-7.41,0-11.75,4.34a15,15,0,0,0-4.34,11A15.31,15.31,0,0,0,664.64,809q4.17,4.35,11.57,4.34a42.28,42.28,0,0,0,9.57-1.05,42.88,42.88,0,0,1,5.23-1.06c2.19,0,3.29,1.6,3.29,4.82v5.52a6.8,6.8,0,0,1-.83,3.58,7.45,7.45,0,0,1-3.4,2.52Q684.07,830.25,674,830.24Z"/><path class="cls-1" d="M715.91,758.46a10.51,10.51,0,0,1-7.58-3,10,10,0,0,1,0-14.51,11.08,11.08,0,0,1,15.1.06,9.82,9.82,0,0,1,0,14.45A10.57,10.57,0,0,1,715.91,758.46Zm-3.17,69.43q-3.29,0-4.76-1.41c-1-.94-1.47-2.54-1.47-4.82V774.21c0-2.28.49-3.88,1.47-4.82s2.57-1.41,4.76-1.41h6.34q3.28,0,4.76,1.41c1,.94,1.47,2.54,1.47,4.82v47.45c0,2.28-.49,3.88-1.47,4.82s-2.57,1.41-4.76,1.41Z"/><path class="cls-1" d="M799.79,766.8c2.42,0,3.64,1.41,3.64,4.23v53.8c0,2.82-1.22,4.23-3.64,4.23a10.2,10.2,0,0,1-5.53-2,20,20,0,0,1-5.4-5.58,24,24,0,0,1-8.93,6.28,30.56,30.56,0,0,1-12.45,2.53q-13.74,0-22.44-9.11t-8.69-23.2q0-13.86,8.75-23.08t22.38-9.22a30.56,30.56,0,0,1,12.45,2.53,24,24,0,0,1,8.93,6.28,20,20,0,0,1,5.4-5.58A10.22,10.22,0,0,1,799.79,766.8ZM759.61,809a14.08,14.08,0,0,0,10.45,4.28,13.91,13.91,0,0,0,10.4-4.28,16.87,16.87,0,0,0,0-22.21,13.94,13.94,0,0,0-10.4-4.28,14.12,14.12,0,0,0-10.45,4.28,16.69,16.69,0,0,0,0,22.21Z"/><path class="cls-1" d="M858.75,811.33c1.88,0,2.82,1.09,2.82,3.29v6.93a8.39,8.39,0,0,1-.76,4.11,6.83,6.83,0,0,1-3.46,2.35,29.8,29.8,0,0,1-10.81,1.64q-23.26,0-23.26-25.25V784.19h-4.94q-3.29,0-4.75-1.41c-1-.94-1.47-2.54-1.47-4.82v-3.75c0-2.28.49-3.88,1.47-4.82s2.56-1.41,4.75-1.41h4.94v-9.05q0-3.28,1.41-4.75t4.81-1.47h6.35c2.27,0,3.87.49,4.82,1.47s1.4,2.56,1.4,4.75V768h12q3.29,0,4.75,1.41c1,.94,1.47,2.54,1.47,4.82V778c0,2.28-.49,3.88-1.47,4.82s-2.56,1.41-4.75,1.41h-12v18q0,5.76,2.06,8.05t6.75,2.29a19.57,19.57,0,0,0,4.76-.59A17.8,17.8,0,0,1,858.75,811.33Z"/><path class="cls-1" d="M880.84,758.46a10.5,10.5,0,0,1-7.58-3,10,10,0,0,1,0-14.51,11.08,11.08,0,0,1,15.1.06,9.82,9.82,0,0,1,0,14.45A10.59,10.59,0,0,1,880.84,758.46Zm-3.17,69.43c-2.2,0-3.78-.47-4.76-1.41s-1.47-2.54-1.47-4.82V774.21c0-2.28.49-3.88,1.47-4.82s2.56-1.41,4.76-1.41H884q3.29,0,4.76,1.41c1,.94,1.47,2.54,1.47,4.82v47.45c0,2.28-.49,3.88-1.47,4.82s-2.57,1.41-4.76,1.41Z"/><path class="cls-1" d="M958.49,821.08q-9.53,9.15-23.85,9.16t-23.85-9.16q-9.51-9.17-9.51-23.15t9.51-23.2q9.53-9.09,23.85-9.1t23.85,9.1q9.51,9.1,9.51,23.2T958.49,821.08Zm-34.31-12q3.89,4.29,10.46,4.28T945.09,809a17.83,17.83,0,0,0,0-22.21,14.91,14.91,0,0,0-20.91,0,17.87,17.87,0,0,0,0,22.21Z"/><path class="cls-1" d="M1035.31,774.32q7.17,8.34,7.17,24.79v22.55c0,2.28-.49,3.88-1.47,4.82s-2.57,1.41-4.76,1.41h-6.34c-2.2,0-3.78-.47-4.76-1.41s-1.47-2.54-1.47-4.82v-22q0-8.34-2.93-12.1-3.18-4.11-9.52-4.11t-9.87,4.11q-3.52,4.11-3.52,12v22.08c0,2.2-.47,3.78-1.41,4.76s-2.55,1.47-4.82,1.47h-6.34q-3.4,0-4.82-1.47c-.94-1-1.41-2.56-1.41-4.76V771c0-2.82,1.22-4.23,3.64-4.23a10.29,10.29,0,0,1,5.64,2.06,19,19,0,0,1,5.41,5.81,24.14,24.14,0,0,1,9.1-6.69,28.06,28.06,0,0,1,11.22-2.35Q1027.67,765.63,1035.31,774.32Z"/></svg>